#N canvas 168 23 1221 730 10;
#X obj 376 233 route /add;
#X obj 872 234 route /remove;
#X obj 133 235 route /start;
#X obj 376 408 readsf~;
#X obj 380 472 dac~;
#X obj 133 416 readsf~;
#X obj 137 480 dac~;
#X obj 872 403 readsf~;
#X obj 876 467 dac~;
#X obj 474 33 netreceive 8000;
#X obj 607 231 route /update;
#X msg 872 310 open ./data/remove.wav \, 2;
#X obj 71 82 tgl 15 0 empty empty empty 17 7 0 10 -262144 -1 -1 1 1
;
#X msg 71 113 \; pd dsp \$1;
#X obj 609 421 readsf~;
#X obj 602 496 dac~;
#X msg 376 332 open ./data/put.wav \, 1;
#X msg 133 343 open ./data/start.wav \, 1;
#X msg 609 347 open ./data/update_2.wav \, 1;
#X connect 0 0 16 0;
#X connect 1 0 11 0;
#X connect 2 0 17 0;
#X connect 3 0 4 0;
#X connect 3 0 4 1;
#X connect 5 0 6 0;
#X connect 5 0 6 1;
#X connect 7 0 8 0;
#X connect 7 0 8 1;
#X connect 9 0 2 0;
#X connect 9 0 0 0;
#X connect 9 0 1 0;
#X connect 9 0 10 0;
#X connect 10 0 18 0;
#X connect 11 0 7 0;
#X connect 12 0 13 0;
#X connect 14 0 15 0;
#X connect 14 0 15 1;
#X connect 16 0 3 0;
#X connect 17 0 5 0;
#X connect 18 0 14 0;
